<svg xmlns="http://www.w3.org/2000/svg" version="1.1" xmlns:xlink="http://www.w3.org/1999/xlink" xmlns:svgjs="http://svgjs.dev/svgjs" width="2000" height="550" viewBox="0 0 2000 550"><g transform="matrix(1,0,0,1,-1.2121212121212466,-31.515178567373994)"><svg viewBox="0 0 396 109" data-background-color="#ffffff" preserveAspectRatio="xMidYMid meet" height="550" width="2000" xmlns="http://www.w3.org/2000/svg" xmlns:xlink="http://www.w3.org/1999/xlink"><g id="tight-bounds" transform="matrix(1,0,0,1,0.2400000000000091,6.249190748372115)"><svg viewBox="0 0 395.52 102.89698816263537" height="102.89698816263537" width="395.52"><g><svg viewBox="0 0 607.1267262389254 157.94779420263518" height="102.89698816263537" width="395.52"><g><rect width="10.306725820055902" height="137.14714402544297" x="422.5009576441254" y="10.400325088596105" fill="#1ebbd7" opacity="1" stroke-width="0" stroke="transparent" fill-opacity="1" class="rect-yte-0" data-fill-palette-color="primary" rx="1%" id="yte-0" data-palette-color="#1ebbd7"></rect></g><g transform="matrix(1,0,0,1,0,21.829253757383015)"><svg viewBox="0 0 395.52 114.28928668786915" height="114.28928668786915" width="395.52"><g id="textblocktransform"><svg viewBox="0 0 395.52 114.28928668786915" height="114.28928668786915" width="395.52" id="textblock"><g><svg viewBox="0 0 395.52 114.28928668786915" height="114.28928668786915" width="395.52"><g transform="matrix(1,0,0,1,0,0)"><svg width="395.52" viewBox="4.38 -33.75 152.82 44.17" height="114.28928668786915" data-palette-color="#1ebbd7"><path d="M19.79 0L4.38 0 4.38-31.25 19.79-31.25 19.79-27.71 8.33-27.71 8.33-21.04 17.36-21.04 17.36-17.5 8.33-17.5 8.33-3.54 19.79-3.54 19.79 0ZM43.33-20.83L32.81 1.04 22.29-20.83 26.56-20.83 30.8-11.81Q31.39-10.59 31.91-9.41 32.43-8.23 32.91-6.53L32.91-6.53Q33.44-8.23 33.97-9.43 34.51-10.63 35.07-11.81L35.07-11.81 39.34-20.83 43.33-20.83ZM57.01 0.42L57.01 0.42Q53.75 0.42 51.16-1.04 48.57-2.5 47.1-5.02 45.62-7.53 45.62-10.63L45.62-10.63Q45.62-13.58 47.04-15.99 48.47-18.4 50.88-19.83 53.29-21.25 56.21-21.25L56.21-21.25Q59.09-21.25 61.49-19.88 63.88-18.51 65.31-16.18 66.73-13.85 66.73-10.9L66.73-10.9 66.73-9.38 53.12-9.38Q52.22-9.38 51.28-9.44 50.34-9.51 49.44-9.65L49.44-9.65Q49.82-6.88 51.96-5 54.09-3.13 57.04-3.13L57.04-3.13Q59.02-3.13 60.72-4.03 62.43-4.93 63.47-6.42L63.47-6.42 64.51-2.15Q63.02-0.94 61.09-0.26 59.16 0.42 57.01 0.42ZM49.34-12.19L49.34-12.19Q51.21-12.5 53.12-12.5L53.12-12.5 60.03-12.5Q60.79-12.5 61.54-12.45 62.29-12.4 63.05-12.33L63.05-12.33Q62.56-14.76 60.62-16.34 58.68-17.92 56.21-17.92L56.21-17.92Q53.68-17.92 51.77-16.23 49.86-14.55 49.34-12.19ZM75.48 0L71.73 0 71.73-20.83 75.2-20.83 75.2-17.47Q76.35-19.31 78.17-20.28 79.99-21.25 82.11-21.25L82.11-21.25Q84.33-21.25 86.23-20.16 88.12-19.06 89.3-17 90.48-14.93 90.48-11.98L90.48-11.98 90.48 0 86.73 0 86.73-11.46Q86.73-13.92 85.25-15.82 83.78-17.71 81.1-17.71L81.1-17.71Q78.92-17.71 77.2-16.13 75.48-14.55 75.48-11.56L75.48-11.56 75.48 0ZM102.91 0L99.16 0 99.16-17.71 94.43-17.71 94.43-20.83 99.26-20.83 99.26-27.78 102.8-27.78 102.8-20.83 107.98-20.83 107.98-17.71 102.91-17.71 102.91 0ZM116.1 0L112.35 0 112.35-20.83 116.1-20.83 116.1 0ZM114.22-24.58L114.22-24.58Q113.18-24.58 112.45-25.31 111.72-26.04 111.72-27.08L111.72-27.08Q111.72-28.16 112.45-28.87 113.18-29.58 114.22-29.58L114.22-29.58Q115.3-29.58 116.01-28.87 116.72-28.16 116.72-27.08L116.72-27.08Q116.72-26.04 116.01-25.31 115.3-24.58 114.22-24.58ZM128.94 0L125.19 0 125.19-17.71 120.47-17.71 120.47-20.83 125.3-20.83 125.3-26.81Q125.3-30.21 127.31-31.98 129.33-33.75 132.1-33.75L132.1-33.75Q133.14-33.75 134.24-33.51 135.33-33.26 136.3-32.67L136.3-32.67 135.4-29.03Q133.94-30.63 132-30.63L132-30.63Q130.82-30.63 129.83-29.83 128.84-29.03 128.84-26.74L128.84-26.74 128.84-20.83 134.01-20.83 134.01-17.71 128.94-17.71 128.94 0ZM141.58 10.42L137.52 10.42 144.29-3.06 135.47-20.83 139.7-20.83 144.15-11.81Q144.74-10.59 145.3-9.41 145.85-8.23 146.41-6.56L146.41-6.56Q147-8.23 147.53-9.43 148.07-10.63 148.7-11.81L148.7-11.81 153.21-20.83 157.2-20.83 141.58 10.42Z" opacity="1" transform="matrix(1,0,0,1,0,0)" fill="#1ebbd7" class="wordmark-text-0" data-fill-palette-color="primary" id="text-0"></path></svg></g></svg></g></svg></g></svg></g><g transform="matrix(1,0,0,1,459.7886411083067,0)"><svg viewBox="0 0 147.33808513061868 157.94779420263518" height="157.94779420263518" width="147.33808513061868"><g><svg xmlns="http://www.w3.org/2000/svg" xmlns:xlink="http://www.w3.org/1999/xlink" version="1.1" x="0" y="0" viewBox="8.179 5.167999999999999 83.6420000509074 89.6650000509074" enable-background="new 0 0 100 100" xml:space="preserve" height="157.94779420263518" width="147.33808513061868" class="icon-icon-0" data-fill-palette-color="accent" id="icon-0"><path d="M35.356 21.357A3.28 3.28 0 1 1 28.798 21.357V8.447A3.278 3.278 0 1 1 35.356 8.447z" fill="#1ebbd7" data-fill-palette-color="accent"></path><path d="M81.983 14.93H72.994V21.357C72.994 24.143 70.729 26.409 67.944 26.409S62.894 24.143 62.894 21.357V14.93H37.128V21.357A5.057 5.057 0 0 1 32.077 26.409 5.057 5.057 0 0 1 27.027 21.357V14.93H18.038C12.604 14.93 8.2 19.335 8.2 24.768V32.146H91.821V24.768C91.821 19.335 87.417 14.93 81.983 14.93" fill="#1ebbd7" data-fill-palette-color="accent"></path><path d="M71.224 21.357A3.28 3.28 0 1 1 64.666 21.357V8.447A3.278 3.278 0 1 1 71.224 8.447z" fill="#1ebbd7" data-fill-palette-color="accent"></path><path d="M8.2 34.884V72.905H8.179V75.122H8.2V84.995A9.837 9.837 0 0 0 18.038 94.833H81.983A9.837 9.837 0 0 0 91.821 84.995V34.884zM89.362 54.279H71.678V37.344H89.363V54.279zM28.907 57.402V72.905H28.49C25.759 68.075 25.83 61.864 28.907 57.402M51.664 72.905H51.4V58.307C53.735 62.682 53.92 68.407 51.664 72.905M49.184 56.496V72.905H31.123V56.496zM31.99 54.279C33.729 53.051 35.884 52.177 38.475 51.827 42.46 51.287 45.692 52.33 48.113 54.279zM49.184 53.506C46.964 51.99 44.372 50.963 41.674 50.597 37.81 50.074 34.125 51.198 31.122 53.336V37.344H49.184zM51.4 37.344H69.461V54.28H51.4zM38.021 79.875C35.218 79.259 32.915 77.978 31.123 76.289V75.122H49.185V76.35C47.251 78.254 44.613 79.61 41.22 80.025 40.196 80.15 39.561 81.418 40.967 81.246 44.071 80.866 46.868 79.778 49.185 78.118V92.375H31.123V78.617A16.8 16.8 0 0 0 36.792 81.049C37.496 81.204 39.204 80.135 38.021 79.875M51.4 76.194C51.727 75.851 52.04 75.495 52.335 75.122H69.461V92.374H51.4zM53.8 72.905A16.7 16.7 0 0 0 55.669 67.157C56.231 63.045 54.897 59.359 52.498 56.496H69.461V72.905zM71.678 56.496H89.363V72.905H71.678zM28.907 37.344V54.28H10.66V37.344zM10.66 56.496H27.773C26.416 58.158 25.349 60.064 24.689 62.107 23.449 65.947 24.044 69.723 25.803 72.905H10.66zM10.66 84.995V75.122H27.304A17 17 0 0 0 28.908 76.851V92.374H18.038C13.97 92.374 10.66 89.063 10.66 84.995M81.983 92.374H71.678V75.122H89.363V84.995C89.362 89.063 86.052 92.374 81.983 92.374" fill="#1ebbd7" data-fill-palette-color="accent"></path></svg></g></svg></g></svg></g><defs></defs></svg><rect width="395.52" height="102.89698816263537" fill="none" stroke="none" visibility="hidden"></rect></g></svg></g></svg>